<svg width="192" height="131" viewBox="0 0 192 131" fill="none" xmlns="http://www.w3.org/2000/svg">
<path fill-rule="evenodd" clip-rule="evenodd" d="M90.0207 22C87.8776 22 85.9941 23.4207 85.4054 25.4813L85.0286 26.8H76.8C74.1491 26.8 72 28.949 72 31.6V53.2C72 55.851 74.1491 58 76.8 58H115.2C117.851 58 120 55.851 120 53.2V31.6C120 28.949 117.851 26.8 115.2 26.8H106.971L106.595 25.4813C106.006 23.4207 104.122 22 101.979 22H90.0207Z" fill="#B3B3B3"/>
<circle cx="95.9999" cy="41.1999" r="7.2" stroke="#F9F9F9" stroke-width="4.8"/>
<path d="M112.761 33.9579C112.774 33.9452 112.787 33.9329 112.8 33.921C112.813 33.9329 112.826 33.9452 112.838 33.9579C112.852 33.9718 112.866 33.9858 112.879 33.9998C112.866 34.0138 112.852 34.0278 112.838 34.0417C112.826 34.0544 112.813 34.0667 112.8 34.0787C112.787 34.0667 112.774 34.0544 112.761 34.0417C112.748 34.0278 112.734 34.0138 112.721 33.9998C112.734 33.9858 112.748 33.9718 112.761 33.9579Z" fill="#F9F9F9" stroke="#F9F9F9" stroke-width="5.48571"/>
<path d="M20.5055 79.916H22.9175V96.638H20.5055V79.916ZM13.9355 81.086C16.4555 81.086 18.3095 83.39 18.3095 87.026C18.3095 90.698 16.4555 93.002 13.9355 93.002C11.4155 93.002 9.56147 90.698 9.56147 87.026C9.56147 83.39 11.4155 81.086 13.9355 81.086ZM13.9355 83.264C12.6935 83.264 11.8475 84.578 11.8475 87.026C11.8475 89.51 12.6935 90.842 13.9355 90.842C15.1775 90.842 16.0055 89.51 16.0055 87.026C16.0055 84.578 15.1775 83.264 13.9355 83.264ZM26.4621 81.428H34.4721V92.642H26.4621V81.428ZM32.1321 83.3H28.8201V90.752H32.1321V83.3ZM37.0641 79.916H39.4761V96.638H37.0641V79.916ZM46.2067 82.562H48.1147V84.434C48.1147 88.286 46.5487 92.048 43.4167 93.47L42.0667 91.58C44.8567 90.338 46.2067 87.26 46.2067 84.434V82.562ZM46.7467 82.562H48.6367V84.434C48.6367 87.134 49.9687 90.014 52.7587 91.166L51.4627 93.056C48.2947 91.688 46.7467 88.142 46.7467 84.434V82.562ZM42.7327 81.536H52.0747V83.498H42.7327V81.536ZM53.6227 79.934H56.0347V96.602H53.6227V79.934ZM58.7513 87.404H73.8533V89.15H58.7513V87.404ZM60.4433 89.978H72.0533V93.938H62.8553V95.36H60.4793V92.426H69.6953V91.598H60.4433V89.978ZM60.4793 94.856H72.5213V96.476H60.4793V94.856ZM60.6053 80.222H72.0173V84.146H62.9993V85.514H60.6233V82.652H69.6593V81.824H60.6053V80.222ZM60.6233 85.01H72.3233V86.63H60.6233V85.01ZM88.6754 83.48H92.5454V85.406H88.6754V83.48ZM83.9774 80.96H85.9034V82.76C85.9034 86.162 84.4814 89.06 81.3314 90.212L80.0714 88.34C82.8254 87.422 83.9774 85.118 83.9774 82.76V80.96ZM84.4994 80.96H86.4074V82.778C86.4074 84.92 87.5054 87.062 90.1334 87.962L88.8554 89.798C85.8674 88.718 84.4994 85.928 84.4994 82.778V80.96ZM91.7174 79.952H94.1114V92.246H91.7174V79.952ZM83.0774 94.406H94.4714V96.314H83.0774V94.406ZM83.0774 91.004H85.4894V95.468H83.0774V91.004ZM97.278 87.53H98.43C100.842 87.53 102.39 87.494 104.226 87.188L104.442 89.096C102.534 89.42 100.914 89.474 98.43 89.474H97.278V87.53ZM97.278 81.05H103.848V82.958H99.582V88.592H97.278V81.05ZM98.898 84.308H103.668V86.108H98.898V84.308ZM108.654 79.934H110.922V90.104H108.654V79.934ZM106.656 84.02H109.302V85.928H106.656V84.02ZM105.09 80.24H107.322V89.996H105.09V80.24ZM99.474 90.824H110.922V96.602H108.546V92.732H99.474V90.824ZM113.261 82.436H121.235V84.344H113.261V82.436ZM117.275 85.082C119.399 85.082 120.929 86.72 120.929 89.06C120.929 91.382 119.399 93.02 117.275 93.02C115.169 93.02 113.621 91.382 113.621 89.06C113.621 86.72 115.169 85.082 117.275 85.082ZM117.275 87.08C116.375 87.08 115.745 87.8 115.745 89.06C115.745 90.32 116.375 91.022 117.275 91.022C118.175 91.022 118.823 90.32 118.823 89.06C118.823 87.8 118.175 87.08 117.275 87.08ZM125.321 79.934H127.607V96.602H125.321V79.934ZM123.323 86.702H126.077V88.628H123.323V86.702ZM121.829 80.24H124.061V95.9H121.829V80.24ZM116.105 80.384H118.463V83.642H116.105V80.384ZM140.863 81.788H142.933V82.274C142.933 85.208 140.539 87.602 136.309 88.178L135.427 86.306C139.099 85.856 140.863 83.984 140.863 82.274V81.788ZM141.547 81.788H143.617V82.274C143.617 83.984 145.381 85.856 149.053 86.306L148.189 88.178C143.941 87.602 141.547 85.208 141.547 82.274V81.788ZM140.989 90.5H143.365V96.62H140.989V90.5ZM134.707 89.132H149.773V91.04H134.707V89.132ZM136.039 80.78H148.405V82.67H136.039V80.78ZM157.817 85.532H160.571V87.476H157.817V85.532ZM154.253 81.374H156.089V84.182C156.089 87.962 155.045 91.652 152.381 93.29L150.941 91.49C153.389 89.978 154.253 87.008 154.253 84.182V81.374ZM154.775 81.374H156.575V84.074C156.575 86.792 157.277 89.564 159.545 91.04L158.249 92.912C155.603 91.274 154.775 87.674 154.775 84.074V81.374ZM163.289 79.934H165.575V96.602H163.289V79.934ZM159.905 80.186H162.137V95.846H159.905V80.186ZM171.136 88.394H173.512V93.074H171.136V88.394ZM177.184 88.394H179.578V93.074H177.184V88.394ZM167.824 92.732H182.908V94.676H167.824V92.732ZM175.348 80.744C178.93 80.744 181.576 82.508 181.576 85.226C181.576 87.944 178.93 89.69 175.348 89.69C171.748 89.69 169.12 87.944 169.12 85.226C169.12 82.508 171.748 80.744 175.348 80.744ZM175.348 82.616C173.026 82.616 171.478 83.57 171.478 85.226C171.478 86.864 173.026 87.836 175.348 87.836C177.67 87.836 179.218 86.864 179.218 85.226C179.218 83.57 177.67 82.616 175.348 82.616Z" fill="#B3B3B3"/>
<path d="M23.2057 128L22.4697 127.264L27.3657 122.304L22.4537 117.36L23.1897 116.608L28.1177 121.552L33.0617 116.624L33.7977 117.36L28.8697 122.304L33.7657 127.28L33.0297 128.016L28.1177 123.056L23.2057 128ZM23.0937 123.28C22.8377 123.28 22.6297 123.211 22.4697 123.072C22.3097 122.923 22.2297 122.683 22.2297 122.352C22.2297 122.021 22.3097 121.781 22.4697 121.632C22.6297 121.483 22.8377 121.408 23.0937 121.408C23.3604 121.408 23.5737 121.483 23.7337 121.632C23.8937 121.781 23.9737 122.021 23.9737 122.352C23.9737 122.683 23.8937 122.923 23.7337 123.072C23.5737 123.211 23.3604 123.28 23.0937 123.28ZM28.0537 128.24C27.8617 128.24 27.7017 128.197 27.5737 128.112C27.4457 128.037 27.3497 127.931 27.2857 127.792C27.2324 127.653 27.2057 127.483 27.2057 127.28C27.2057 127.088 27.2324 126.923 27.2857 126.784C27.3497 126.635 27.4457 126.523 27.5737 126.448C27.7017 126.373 27.8617 126.336 28.0537 126.336C28.2564 126.336 28.4217 126.373 28.5497 126.448C28.6777 126.523 28.7737 126.635 28.8377 126.784C28.9017 126.923 28.9337 127.088 28.9337 127.28C28.9337 127.483 28.9017 127.653 28.8377 127.792C28.7737 127.931 28.6777 128.037 28.5497 128.112C28.4217 128.197 28.2564 128.24 28.0537 128.24ZM28.0537 118.304C27.8617 118.304 27.7017 118.267 27.5737 118.192C27.4457 118.107 27.3497 117.995 27.2857 117.856C27.2324 117.707 27.2057 117.536 27.2057 117.344C27.2057 117.152 27.2324 116.987 27.2857 116.848C27.3497 116.699 27.4457 116.587 27.5737 116.512C27.7017 116.437 27.8617 116.4 28.0537 116.4C28.2564 116.4 28.4217 116.437 28.5497 116.512C28.6777 116.587 28.7737 116.699 28.8377 116.848C28.9017 116.987 28.9337 117.152 28.9337 117.344C28.9337 117.536 28.9017 117.707 28.8377 117.856C28.7737 117.995 28.6777 118.107 28.5497 118.192C28.4217 118.267 28.2564 118.304 28.0537 118.304ZM33.1417 123.28C32.8857 123.28 32.6777 123.211 32.5177 123.072C32.3577 122.923 32.2777 122.683 32.2777 122.352C32.2777 122.021 32.3577 121.781 32.5177 121.632C32.6777 121.483 32.8857 121.408 33.1417 121.408C33.4084 121.408 33.6217 121.483 33.7817 121.632C33.9417 121.781 34.0217 122.021 34.0217 122.352C34.0217 122.683 33.9417 122.923 33.7817 123.072C33.6217 123.211 33.4084 123.28 33.1417 123.28ZM41.7843 115.456H51.0963V116.528H41.7843V115.456ZM50.2323 115.456H51.5283V116.576C51.5283 117.776 51.5283 119.2 51.1123 121.104L49.8003 120.96C50.2323 119.088 50.2323 117.76 50.2323 116.576V115.456ZM50.6003 117.904V118.848L41.5923 119.248L41.4163 118.192L50.6003 117.904ZM40.1203 120.704H53.1763V121.76H40.1203V120.704ZM41.6403 123.136H51.6403V126.512H42.9843V128.464H41.6723V125.52H50.3283V124.16H41.6403V123.136ZM41.6723 128.016H52.1363V129.056H41.6723V128.016ZM65.3511 114.784H66.6951V123.632H65.3511V114.784ZM57.0311 124.416H66.6951V129.248H65.3511V125.504H57.0311V124.416ZM55.5751 121.728H56.7431C59.3671 121.728 61.3031 121.648 63.6231 121.28L63.7671 122.352C61.3831 122.752 59.4311 122.816 56.7431 122.816H55.5751V121.728ZM55.5431 115.632H62.1031V119.648H56.8711V122.256H55.5751V118.624H60.8071V116.72H55.5431V115.632ZM77.8658 116.032H78.9538V118.624C78.9538 121.952 77.1618 125.04 74.7938 126.24L73.9778 125.152C76.1218 124.128 77.8658 121.36 77.8658 118.624V116.032ZM78.0898 116.032H79.1778V118.624C79.1778 121.264 80.9058 123.92 83.0498 124.912L82.2498 125.968C79.8978 124.816 78.0898 121.84 78.0898 118.624V116.032ZM84.5538 114.768H85.8818V129.264H84.5538V114.768ZM103.773 114.768H105.101V129.264H103.773V114.768ZM97.4686 115.888C99.6126 115.888 101.149 117.856 101.149 120.928C101.149 124.016 99.6126 125.984 97.4686 125.984C95.3406 125.984 93.8046 124.016 93.8046 120.928C93.8046 117.856 95.3406 115.888 97.4686 115.888ZM97.4686 117.088C96.0606 117.088 95.0686 118.592 95.0686 120.928C95.0686 123.28 96.0606 124.816 97.4686 124.816C98.8926 124.816 99.8686 123.28 99.8686 120.928C99.8686 118.592 98.8926 117.088 97.4686 117.088ZM108.811 116.192H115.467V125.616H108.811V116.192ZM114.171 117.264H110.107V124.544H114.171V117.264ZM118.491 114.768H119.819V129.264H118.491V114.768ZM126.538 116.848H127.61V119.2C127.61 122.256 125.77 125.328 123.466 126.464L122.698 125.408C124.794 124.416 126.538 121.696 126.538 119.2V116.848ZM126.794 116.848H127.866V119.2C127.866 121.648 129.61 124.144 131.738 125.056L130.986 126.112C128.65 125.024 126.794 122.208 126.794 119.2V116.848ZM123.178 116.256H131.258V117.376H123.178V116.256ZM133.21 114.784H134.538V129.248H133.21V114.784ZM149.341 118.192H152.989V119.296H149.341V118.192ZM145.549 115.664H146.621V117.44C146.621 120.24 145.053 122.576 142.637 123.552L141.949 122.496C144.093 121.696 145.549 119.648 145.549 117.44V115.664ZM145.805 115.664H146.877V117.488C146.877 119.504 148.285 121.408 150.381 122.176L149.661 123.2C147.357 122.304 145.805 120.064 145.805 117.488V115.664ZM152.493 114.8H153.821V125.616H152.493V114.8ZM144.525 127.84H154.173V128.928H144.525V127.84ZM144.525 124.416H145.853V128.352H144.525V124.416ZM157.26 121.696H158.188C160.46 121.696 161.804 121.648 163.42 121.328L163.548 122.416C161.884 122.736 160.508 122.8 158.188 122.8H157.26V121.696ZM157.26 115.84H162.86V116.928H158.54V122.288H157.26V115.84ZM158.14 118.72H162.684V119.76H158.14V118.72ZM167.564 114.784H168.828V123.552H167.564V114.784ZM165.228 118.56H167.964V119.648H165.228V118.56ZM164.38 115.056H165.628V123.472H164.38V115.056ZM159.132 124.32H168.828V129.248H167.516V125.408H159.132V124.32Z" fill="#B3B3B3"/>
</svg>
